<svg xmlns="http://www.w3.org/2000/svg" viewBox="0 0 140 100" fill="none">
  <!-- Inka Fish Isotype -->
  <g id="inka-fish-icon">
    <!-- Tail (Teal #347B85) -->
    <path d="M 38 20 L 15 28 L 38 48 Z" fill="#347B85" />
    <path d="M 38 52 L 15 72 L 38 80 Z" fill="#347B85" />
    <polygon points="38,32 48,32 48,68 38,68" fill="#347B85" />

    <!-- Top Fin (Magenta #E6007E) -->
    <path d="M 68 12 L 85 24 L 72 24 Z" fill="#E6007E" />

    <!-- Bottom Fin (Magenta #E6007E) -->
    <path d="M 68 88 L 85 76 L 72 76 Z" fill="#E6007E" />

    <!-- Body Stepped Outer (Magenta #E6007E) -->
    <rect x="48" y="24" width="24" height="12" fill="#E6007E" />
    <rect x="72" y="24" width="16" height="12" fill="#E6007E" />
    <rect x="48" y="36" width="12" height="12" fill="#E6007E" />
    <rect x="48" y="52" width="12" height="12" fill="#E6007E" />
    <rect x="48" y="64" width="24" height="12" fill="#E6007E" />
    <rect x="72" y="64" width="16" height="12" fill="#E6007E" />
    <rect x="72" y="36" width="12" height="12" fill="#E6007E" />
    <rect x="72" y="52" width="12" height="12" fill="#E6007E" />

    <!-- Center Diamond Motif (Warm Gold #F5921E) -->
    <rect x="60" y="36" width="12" height="12" fill="#F5921E" />
    <rect x="60" y="52" width="12" height="12" fill="#F5921E" />
    <rect x="54" y="44" width="12" height="12" fill="#F5921E" stroke="#FFFFFF" stroke-width="1.5" />
    <rect x="66" y="44" width="12" height="12" fill="#F5921E" stroke="#FFFFFF" stroke-width="1.5" />
    <rect x="60" y="44" width="12" height="12" fill="#F5921E" />

    <!-- Head / Mouth (Teal #347B85) -->
    <path d="M 84 32 H 102 L 115 50 L 102 68 H 84 V 56 H 88 V 44 H 84 Z" fill="#347B85" />
    <!-- Eye (White circle) -->
    <circle cx="100" cy="44" r="3.5" fill="#FFFFFF" />
  </g>
</svg>
